<?xml version="1.0" standalone="no"?>
<!DOCTYPE svg PUBLIC "-//W3C//DTD SVG 20010904//EN"
 "http://www.w3.org/TR/2001/REC-SVG-20010904/DTD/svg10.dtd">
<svg version="1.0" xmlns="http://www.w3.org/2000/svg"
 width="295.000000pt" height="295.000000pt" viewBox="0 0 295.000000 295.000000"
 preserveAspectRatio="xMidYMid meet">
<metadata>
Created by potrace 1.11, written by Peter Selinger 2001-2013
</metadata>
<g transform="translate(0.000000,295.000000) scale(0.100000,-0.100000)"
fill="#000000" stroke="none">
<path d="M1373 2743 c-4 -10 -1 -19 6 -21 11 -4 11 -6 0 -14 -14 -9 30 -2 61
9 8 3 45 5 83 4 54 -2 67 0 67 12 0 11 -13 15 -56 16 -31 0 -65 3 -75 6 -14 5
-19 1 -19 -14 0 -27 -26 -27 -33 -1 -6 24 -25 26 -34 3z"/>
<path d="M1610 2720 c-9 -6 -10 -10 -3 -10 6 0 15 5 18 10 8 12 4 12 -15 0z"/>
<path d="M1448 2693 c17 -2 47 -2 65 0 17 2 3 4 -33 4 -36 0 -50 -2 -32 -4z"/>
<path d="M957 2665 c-4 -25 -4 -25 14 -9 22 20 24 34 5 34 -7 0 -16 -11 -19
-25z"/>
<path d="M1020 2669 c0 -18 5 -20 38 -18 21 2 43 0 49 -4 6 -4 28 -1 49 7 53
19 25 30 -61 24 -36 -2 -59 0 -52 4 8 5 7 8 -5 8 -12 0 -18 -8 -18 -21z"/>
<path d="M1780 2676 c0 -8 9 -18 20 -21 22 -7 26 -20 10 -30 -6 -4 -8 -10 -6
-14 3 -4 -19 -31 -48 -60 -40 -40 -59 -52 -77 -49 -21 3 -14 10 49 52 39 27
72 51 72 53 0 6 -14 -3 -95 -58 l-70 -48 -135 0 c-159 1 -163 -2 120 80 124
36 176 55 166 61 -9 5 -39 1 -78 -11 -35 -11 -146 -44 -248 -75 l-185 -55
-217 -3 c-139 -2 -218 -6 -218 -13 0 -6 22 -9 52 -8 143 7 298 7 298 2 0 -6
-59 -22 -85 -23 -5 -1 -13 -4 -16 -9 -3 -4 -52 -22 -110 -41 l-104 -34 -45 31
c-25 17 -48 35 -51 40 -4 5 -12 8 -19 5 -7 -2 10 -19 39 -37 28 -18 51 -37 51
-41 0 -4 -23 -15 -51 -25 -60 -19 -64 -16 -74 51 l-6 42 -58 7 c-63 7 -79 0
-134 -62 -25 -28 -33 -29 -40 -3 -8 32 -37 25 -37 -9 0 -17 5 -33 10 -36 7 -4
-2 -23 -20 -48 l-31 -42 23 -6 c15 -3 26 0 32 10 15 28 70 81 82 81 7 0 19 12
26 27 7 14 19 29 26 31 11 3 12 0 2 -18 -6 -12 -10 -24 -7 -26 2 -3 11 12 20
34 8 21 22 44 30 51 13 11 15 7 12 -31 -3 -56 -30 -118 -50 -118 -13 0 -12 6
6 41 11 23 16 39 11 36 -4 -4 -17 -24 -27 -46 -15 -34 -25 -43 -69 -57 -49
-17 -50 -17 -28 -32 33 -22 28 -48 -10 -56 l-33 -7 57 -29 56 -29 -26 -81
c-14 -44 -29 -80 -33 -80 -3 0 -14 26 -24 58 -16 55 -16 61 0 93 l16 34 -20
-25 -20 -25 -10 28 c-6 16 -11 35 -11 43 0 10 -12 14 -38 14 -33 0 -38 -4 -48
-32 -7 -18 -30 -73 -52 -123 -46 -106 -56 -135 -45 -135 4 0 30 54 57 121 26
66 50 118 53 116 2 -3 -7 -59 -21 -126 -30 -138 -29 -131 -18 -131 5 0 14 36
21 80 8 44 17 83 22 86 15 9 9 -119 -6 -146 -19 -33 -19 -49 0 -24 13 17 14 5
15 -118 l0 -137 -45 -37 c-25 -20 -48 -34 -52 -30 -3 3 -1 30 5 58 6 29 14 77
17 107 3 30 15 71 26 92 l19 39 -25 -12 c-13 -6 -22 -14 -20 -19 5 -7 -8 -50
-30 -103 -6 -14 -5 -17 4 -12 8 6 10 1 6 -16 -5 -22 -20 -112 -32 -190 -4 -25
-2 -38 6 -38 6 0 11 12 11 28 0 15 4 32 8 37 10 15 88 75 97 75 8 0 -4 -79
-16 -102 -5 -10 -16 -14 -28 -11 -23 6 -36 -25 -25 -59 6 -20 5 -21 -9 -10
-10 9 -17 10 -22 2 -3 -5 0 -10 7 -10 36 -1 40 -16 22 -74 -10 -31 -21 -56
-25 -56 -20 0 -31 34 -27 80 3 27 1 47 -4 44 -4 -3 -8 -18 -8 -35 0 -36 -14
-37 -36 -4 -9 14 -24 25 -34 25 -17 0 -15 -10 16 -102 27 -79 34 -112 29 -144
-6 -41 -6 -42 31 -49 35 -6 60 7 49 25 -6 10 75 83 83 75 4 -3 -2 -13 -12 -21
-18 -13 -18 -15 -3 -32 9 -10 17 -33 17 -50 0 -26 -4 -32 -22 -33 l-23 0 23
-9 c20 -8 22 -16 22 -75 0 -36 -4 -65 -9 -65 -15 0 -71 70 -71 89 0 13 -7 19
-25 18 -20 0 -23 -3 -15 -17 5 -9 16 -22 25 -30 8 -7 22 -38 31 -69 9 -31 24
-74 35 -97 10 -22 19 -48 19 -57 0 -25 88 -24 106 1 12 16 14 16 31 -1 10 -10
18 -25 18 -35 0 -9 6 -16 14 -14 8 2 30 -13 50 -32 20 -20 73 -71 119 -114 58
-56 82 -86 82 -103 0 -19 2 -21 10 -9 8 12 18 7 57 -30 127 -119 100 -86 -40
51 -98 97 -157 161 -157 174 0 14 -3 16 -8 8 -6 -9 -17 -3 -41 21 l-34 35 24
5 c94 20 77 33 237 -183 160 -216 162 -219 162 -205 0 5 -65 96 -145 201 -80
106 -145 194 -145 197 0 2 21 7 48 10 26 4 63 9 84 12 l36 5 53 -163 c29 -90
58 -176 65 -193 7 -16 15 -42 19 -56 6 -25 5 -26 -32 -25 -39 2 -149 66 -155
90 -2 8 -9 6 -20 -6 -16 -16 -12 -20 72 -74 50 -31 90 -60 90 -63 0 -4 31 -2
69 3 l68 9 138 256 c76 141 144 266 151 278 9 15 27 23 61 27 44 6 88 12 153
21 136 19 998 170 1028 180 8 3 10 10 5 17 -4 7 -8 17 -8 22 0 5 -6 11 -13 14
-7 2 -10 -2 -6 -11 8 -22 -32 -33 -251 -72 -266 -47 -681 -116 -725 -120 -19
-1 -37 -4 -40 -6 -3 -1 -18 -4 -35 -5 -16 -2 -52 -7 -80 -13 -27 -5 -52 -7
-55 -4 -8 7 83 175 97 180 7 3 13 14 13 26 0 21 66 147 82 158 6 3 9 9 7 13
-4 13 54 125 63 120 4 -3 8 3 8 13 0 19 77 173 87 173 11 0 846 -425 858 -437
12 -11 56 -7 54 6 0 3 -23 24 -51 45 -95 72 -652 481 -710 521 -32 22 -58 43
-58 48 0 17 252 509 258 502 4 -3 45 -80 92 -169 47 -89 161 -309 255 -487 93
-178 185 -354 205 -391 83 -159 58 -49 -90 397 -33 99 -60 192 -60 207 0 14
-4 28 -9 30 -8 2 -139 369 -214 598 -24 73 -25 75 -32 68 -3 -3 14 -61 39
-129 130 -360 391 -1151 384 -1168 -2 -5 -86 149 -187 342 -106 203 -179 353
-172 355 6 2 11 11 11 20 0 15 -2 15 -10 2 -6 -10 -12 -11 -19 -5 -5 6 -50 88
-100 184 l-91 174 59 113 c55 107 57 113 37 118 -30 8 -56 7 -54 -1 3 -15 -14
-43 -22 -38 -5 3 -12 0 -16 -6 -4 -8 -3 -9 4 -5 24 15 11 -11 -21 -42 -38 -37
-52 -41 -44 -13 3 12 0 18 -7 15 -10 -3 -46 55 -46 75 0 5 26 12 58 16 31 4
60 9 65 12 19 12 -27 32 -93 39 l-73 9 -31 62 c-17 34 -34 62 -39 62 -4 1 6
-26 23 -59 16 -33 30 -62 30 -65 0 -3 -27 -5 -60 -5 -33 0 -60 4 -60 8 0 5 9
34 19 65 l20 57 -30 0 c-17 0 -28 4 -25 9 3 5 -1 11 -9 15 -8 3 -15 12 -15 21
0 8 -7 15 -15 15 -8 0 -15 -6 -15 -14z m60 -141 c-9 -27 -17 -35 -36 -35 l-24
0 33 46 c34 49 45 45 27 -11z m-49 18 c-20 -34 -38 -53 -52 -53 -7 0 2 16 21
35 38 39 46 43 31 18z m-273 -75 c13 -4 22 -4 22 2 0 6 14 10 30 10 17 0 30
-4 30 -10 0 -5 -3 -10 -7 -10 -5 0 -21 -12 -38 -26 -19 -16 -10 -12 25 10 51
34 100 47 100 27 0 -15 -99 -101 -117 -101 -10 0 -36 -3 -58 -6 l-40 -6 30 27
c27 24 26 24 -15 -4 -29 -20 -60 -31 -87 -33 -24 -2 -43 -6 -43 -11 0 -4 -12
-7 -27 -6 -16 0 -97 -10 -181 -24 l-152 -24 -41 30 c-22 16 -37 33 -32 37 7 6
206 71 228 74 6 0 13 6 17 11 5 6 8 4 8 -5 0 -11 2 -12 8 -3 17 27 124 52 222
50 52 0 105 -4 118 -9z m212 0 c-1 -23 -54 -77 -82 -84 -41 -9 -35 9 20 55 50
43 62 49 62 29z m84 -22 c-8 -29 -33 -46 -66 -46 -35 0 -35 8 1 47 21 23 35
30 50 26 16 -4 20 -11 15 -27z m286 12 c-19 -5 -49 -8 -67 -6 -18 2 -34 1 -35
-3 -4 -10 -167 -38 -172 -30 -2 3 0 16 5 28 8 22 12 22 156 22 114 -1 140 -3
113 -11z m-63 -83 c21 -37 21 -41 5 -60 -9 -11 -10 -14 -2 -7 20 17 30 15 30
-6 0 -15 -251 -271 -392 -401 l-38 -35 31 95 c18 52 41 105 53 118 11 13 15
21 9 17 -18 -10 -18 -8 33 150 l47 143 71 11 c39 6 76 13 81 15 27 10 51 -3
72 -40z m143 -64 c-22 -45 -44 -81 -49 -81 -5 0 -14 14 -21 31 -13 30 -12 32
46 90 32 33 60 55 62 50 2 -5 -15 -46 -38 -90z m-1700 44 c0 -14 -4 -25 -10
-25 -5 0 -10 11 -10 25 0 14 5 25 10 25 6 0 10 -11 10 -25z m1310 22 c0 -6
-100 -303 -109 -322 -4 -11 -20 -59 -35 -107 -15 -49 -30 -88 -32 -88 -3 0
-26 14 -50 31 -33 22 -44 36 -39 47 5 13 4 14 -6 5 -9 -9 -22 -5 -55 18 -24
16 -44 34 -44 38 0 11 41 64 57 74 7 4 13 12 13 18 0 18 193 271 214 279 20 8
86 13 86 7z m-142 -25 c-1 -5 -59 -83 -127 -175 l-123 -165 -49 30 c-27 16
-49 33 -49 37 0 5 65 70 145 145 122 114 150 136 176 136 17 0 29 -4 27 -8z
m-938 -27 c0 -14 -4 -25 -10 -25 -5 0 -10 11 -10 25 0 14 5 25 10 25 6 0 10
-11 10 -25z m725 -96 c-66 -66 -128 -125 -139 -131 -14 -8 -28 -3 -65 23 -25
18 -47 37 -49 41 -2 4 -8 8 -14 8 -13 0 -141 90 -136 96 4 3 157 27 247 39 23
3 47 8 52 11 20 12 30 -8 14 -26 -16 -18 -15 -18 21 0 21 11 40 24 43 28 5 7
71 22 136 31 5 0 -44 -53 -110 -120z m-505 85 c22 -15 39 -29 36 -31 -4 -4
-180 -32 -203 -33 -7 0 -13 11 -13 24 0 21 9 28 58 44 76 26 76 26 122 -4z
m-273 -16 c-3 -8 -6 -5 -6 6 -1 11 2 17 5 13 3 -3 4 -12 1 -19z m63 -38 c0
-13 -7 -20 -20 -20 -19 0 -27 20 -13 33 13 14 33 6 33 -13z m1387 -26 l17 -35
-108 -217 c-59 -119 -119 -236 -133 -260 l-24 -43 -42 32 c-23 18 -48 39 -54
48 -7 8 -13 11 -13 7 0 -8 -88 53 -97 67 -6 9 415 437 430 437 4 0 15 -16 24
-36z m-1461 -1 c-10 -10 -19 5 -10 18 6 11 8 11 12 0 2 -7 1 -15 -2 -18z m433
-20 c36 -25 68 -48 70 -50 2 -1 -4 -13 -15 -25 -19 -23 -19 -23 2 -5 11 9 24
17 27 17 10 0 107 -64 107 -70 0 -3 -45 -50 -100 -105 l-100 -99 -80 39 c-44
21 -80 42 -80 45 0 3 6 12 13 19 10 11 8 11 -10 0 -19 -11 -28 -10 -71 10
l-49 23 -17 92 c-9 51 -16 99 -16 108 0 12 21 19 93 31 147 23 151 23 226 -30z
m-473 22 c-23 -17 -36 -19 -36 -6 0 5 8 12 18 14 32 9 37 6 18 -8z m128 -42
c16 -82 27 -156 23 -159 -3 -3 -26 5 -51 18 l-47 22 6 56 c10 81 14 90 40 90
18 0 25 -7 29 -27z m-94 -20 c0 -21 -3 -48 -6 -60 -5 -19 -10 -21 -25 -12 -15
7 -18 16 -13 37 19 79 44 98 44 35z m-40 18 c0 -13 -22 -71 -27 -71 -4 0 -45
20 -51 25 -2 2 4 15 13 29 16 25 65 38 65 17z m9 -120 c11 -7 12 -23 7 -68
-14 -123 -39 -262 -45 -258 -4 2 -18 37 -30 78 l-24 74 28 84 c36 110 35 108
64 90z m748 -50 c12 -9 23 -20 23 -25 0 -10 -138 -196 -145 -196 -7 0 -138 59
-143 65 -3 3 39 50 93 105 l99 100 25 -17 c14 -9 36 -23 48 -32z m-579 -75 c7
-45 6 -54 -12 -76 -15 -18 -16 -21 -3 -11 9 8 20 12 23 9 8 -9 42 -222 36
-233 -10 -20 -162 -158 -168 -153 -3 4 -8 26 -11 50 -3 24 -13 51 -21 61 -17
20 -21 99 -9 182 5 28 15 95 23 150 8 55 17 106 19 113 3 9 20 5 59 -15 53
-26 55 -29 64 -77z m-342 57 c-10 -10 -19 5 -10 18 6 11 8 11 12 0 2 -7 1 -15
-2 -18z m32 -73 c21 -45 21 -105 0 -150 -9 -19 -19 -50 -23 -67 -13 -64 -21
-31 -20 85 0 64 -4 128 -8 142 -6 19 -6 21 2 10 9 -13 11 -12 11 6 0 25 13 41
18 22 2 -7 11 -29 20 -48z m374 -3 c-25 -24 -30 -22 -38 22 l-7 33 33 -17 33
-17 -21 -21z m611 27 c33 -22 37 -28 25 -42 -12 -15 -11 -16 4 -3 16 12 25 9
73 -24 30 -21 55 -41 55 -44 0 -4 -34 -40 -75 -81 l-75 -74 -80 39 c-44 21
-80 42 -80 45 0 3 6 12 13 20 6 8 2 6 -11 -5 -16 -13 -26 -15 -33 -8 -8 8 10
39 60 107 39 53 75 96 79 96 4 0 24 -12 45 -26z m-501 -49 c67 -31 75 -37 71
-58 -5 -25 -158 -185 -167 -176 -3 3 -13 54 -23 113 l-17 108 27 24 c16 13 29
24 31 24 2 0 37 -16 78 -35z m198 -95 c33 -17 60 -35 60 -41 0 -16 -60 -97
-76 -103 -8 -3 -14 -13 -14 -21 0 -9 -7 -23 -14 -31 -8 -8 -54 -68 -102 -134
-48 -66 -91 -120 -95 -120 -4 0 -10 22 -14 48 -8 63 -12 83 -26 170 l-13 73
89 89 c55 55 98 91 114 93 14 2 27 5 29 6 1 0 29 -13 62 -29z m675 -117 l30
-21 -35 -71 c-18 -39 -37 -71 -42 -71 -19 0 -118 55 -118 66 0 7 -4 16 -10 19
-6 3 -7 -1 -4 -9 9 -23 -19 -20 -34 4 -7 11 -19 20 -27 20 -8 0 -15 6 -15 13
0 11 32 113 55 175 4 11 74 -32 200 -125z m-1301 71 c12 -38 14 -59 7 -68 -17
-20 -101 -78 -101 -69 0 19 62 193 69 193 4 0 15 -25 25 -56z m1046 -50 c-11
-32 -24 -62 -28 -66 -4 -4 -18 2 -32 12 l-25 19 49 50 c28 28 51 49 53 47 2
-1 -6 -29 -17 -62z m-290 36 c3 -3 34 -21 70 -39 36 -19 69 -38 75 -42 10 -10
-103 -131 -116 -123 -4 2 -10 -4 -14 -15 -3 -11 -65 -75 -138 -144 -114 -107
-136 -124 -162 -122 -16 1 -20 0 -7 -2 12 -2 22 -8 22 -12 0 -10 -69 -76 -74
-70 -2 2 -7 23 -11 47 -5 31 -3 42 6 42 8 0 5 5 -6 13 -13 10 -15 16 -6 21 6
4 9 12 6 17 -10 16 6 33 17 18 7 -11 8 -10 4 4 -4 13 22 54 84 138 50 65 93
126 97 135 3 8 12 13 19 10 9 -4 14 2 14 17 0 13 15 38 35 57 19 19 35 40 35
48 0 13 38 14 50 2z m-725 -80 c5 -16 -27 -278 -39 -315 -2 -5 -3 -13 -2 -17
1 -8 -75 -88 -84 -88 -3 0 -6 19 -5 43 1 39 3 42 30 46 l30 4 -30 6 -30 6 0
119 c0 65 5 125 10 132 13 16 98 83 107 83 4 1 10 -8 13 -19z m1580 -200 c253
-184 473 -349 480 -361 5 -7 -797 394 -814 408 -5 4 32 84 55 121 l15 23 47
-34 c26 -19 124 -89 217 -157z m-641 169 c13 -6 26 -21 28 -33 5 -24 -103
-371 -121 -389 -6 -6 -11 -20 -11 -31 0 -12 -12 -56 -26 -98 l-26 -78 -188 0
c-214 0 -192 -10 -205 96 l-7 50 52 47 c29 26 62 47 74 47 14 0 17 3 9 8 -8 5
32 53 126 146 80 80 143 136 150 132 7 -5 11 1 11 15 0 17 4 20 21 16 13 -4
19 -1 16 6 -5 12 50 77 64 77 5 0 19 -5 33 -11z m-648 -91 c11 -91 10 -88 23
-156 14 -75 8 -106 -20 -97 -10 4 -19 2 -19 -3 0 -6 5 -12 10 -14 6 -2 -7 -27
-28 -56 -39 -52 -40 -52 -54 -30 -8 13 -21 40 -28 62 -10 32 -10 40 1 47 11 7
11 9 -2 9 -11 0 -23 21 -38 63 -11 35 -21 70 -21 77 0 17 150 171 161 165 4
-3 10 -33 15 -67z m742 43 c9 -5 51 -26 92 -46 41 -21 78 -40 81 -44 6 -5 -27
-75 -128 -268 -15 -29 -33 -53 -39 -53 -7 0 -10 -8 -8 -17 4 -22 -69 -149 -84
-146 -6 2 -11 -10 -11 -25 1 -33 -75 -178 -99 -191 -9 -4 -36 -11 -59 -15 -53
-8 -53 -4 -10 119 31 87 33 90 67 96 l35 6 -32 2 c-18 0 -33 3 -33 5 0 2 15
48 34 103 18 54 46 140 61 191 16 52 34 92 41 92 7 0 10 8 7 19 -6 23 45 181
58 181 5 0 17 -4 27 -9z m-974 -98 l16 -47 -37 -38 c-20 -21 -38 -36 -40 -34
-4 4 15 129 22 154 8 24 23 11 39 -35z m-236 -170 c2 -105 -1 -129 -15 -145
-22 -24 -28 -23 -52 11 l-21 29 20 58 c11 33 23 66 27 74 3 8 7 22 9 31 5 23
23 69 27 69 2 0 5 -57 5 -127z m-38 93 c0 -14 -4 -27 -9 -30 -12 -8 -22 20
-15 39 9 23 24 18 24 -9z m310 -31 c13 -41 8 -65 -15 -65 -8 0 -15 -4 -15 -8
0 -4 12 -8 27 -7 26 0 30 -6 55 -75 15 -41 27 -85 27 -98 1 -22 -66 -122 -81
-122 -4 0 -8 -5 -8 -10 0 -6 -19 -35 -41 -66 -46 -60 -48 -60 -94 6 -19 27
-25 45 -20 57 5 10 7 22 6 26 -2 11 28 189 36 207 3 8 5 21 4 28 -5 28 23 89
57 125 20 20 39 37 43 37 4 0 13 -16 19 -35z m-420 -142 c0 -48 -13 -40 -35
20 -29 82 -28 84 4 47 21 -23 31 -45 31 -67z m266 10 c-4 -21 -9 -47 -11 -58
-21 -136 -29 -175 -36 -175 -16 0 -21 23 -23 108 -1 86 -1 87 32 124 19 21 37
38 39 38 3 0 2 -17 -1 -37z m398 -13 c3 -16 8 -43 12 -59 4 -25 -2 -35 -45
-76 -27 -26 -53 -47 -57 -48 -4 -1 -13 16 -21 37 -12 35 -11 42 2 55 11 11 15
12 15 3 0 -7 5 -10 11 -7 6 4 8 14 5 22 -6 14 50 103 65 103 4 0 10 -13 13
-30z m-624 -30 c0 -9 -5 -32 -11 -50 -16 -45 -29 -19 -22 43 5 38 8 45 19 36
8 -6 14 -19 14 -29z m29 -96 c-44 -45 -56 -31 -34 37 l18 53 24 -28 24 -29
-32 -33z m621 -11 c0 -10 3 -35 6 -55 l7 -38 -62 0 c-33 0 -61 3 -61 7 0 10
92 103 102 103 4 0 8 -8 8 -17z m-159 -50 l12 -36 -94 -89 c-55 -52 -97 -84
-102 -79 -9 9 90 151 105 151 5 0 8 5 8 12 0 11 47 78 55 78 2 0 9 -16 16 -37z
m-317 -101 c-4 -23 -10 -42 -15 -42 -10 0 -12 60 -3 85 12 30 25 -1 18 -43z
m508 -62 c9 -58 17 -118 17 -133 1 -26 -2 -28 -31 -25 -32 3 -34 5 -75 123
-23 66 -42 126 -42 133 -1 10 14 12 56 10 l58 -3 17 -105z m378 103 c0 -19
-64 -199 -74 -209 -10 -10 -245 -48 -252 -41 -2 1 -10 50 -19 107 -9 58 -18
115 -21 128 l-4 22 185 0 c102 0 185 -3 185 -7z m-501 -142 c22 -69 40 -126
38 -127 -1 -1 -42 -8 -90 -15 -98 -14 -94 -15 -139 65 -10 17 -18 26 -18 21 0
-6 -6 -1 -12 9 -10 17 0 30 76 104 48 46 91 80 96 76 4 -5 26 -65 49 -133z
m-314 60 c30 -45 28 -59 -14 -111 -24 -28 -32 -32 -43 -22 -13 10 -13 22 1 92
8 44 18 80 22 80 3 0 19 -18 34 -39z m-135 -115 c0 -48 -11 -39 -34 28 -21 64
-21 64 9 36 19 -18 25 -34 25 -64z m190 36 c0 -5 -13 -21 -30 -37 -35 -34 -39
-26 -8 15 21 29 38 39 38 22z m60 -73 c22 -28 40 -54 40 -58 0 -5 -26 -11 -57
-14 -50 -5 -61 -3 -80 15 -30 28 -29 44 5 65 15 10 31 23 35 30 12 19 13 18
57 -38z m-183 -26 c-17 -18 -22 -8 -11 22 5 12 10 13 17 6 8 -8 6 -16 -6 -28z
m933 30 c0 -14 -244 -456 -247 -447 -2 5 29 106 69 224 71 209 74 215 103 221
43 9 75 10 75 2z m-133 -26 c-3 -7 -40 -120 -82 -250 -43 -130 -80 -237 -84
-237 -8 0 -76 458 -69 465 6 6 171 32 212 34 19 1 27 -3 23 -12z m-267 -34 c0
-5 9 -64 20 -133 11 -69 19 -136 19 -150 -1 -24 -99 251 -99 277 0 8 12 13 30
13 17 0 30 -3 30 -7z"/>
<path d="M1929 2243 c-13 -16 -12 -17 4 -4 9 7 17 15 17 17 0 8 -8 3 -21 -13z"/>
<path d="M1859 2193 c-13 -16 -12 -17 4 -4 9 7 17 15 17 17 0 8 -8 3 -21 -13z"/>
<path d="M1261 2241 c-29 -22 -58 -45 -65 -52 -12 -14 90 56 114 78 26 24 6
13 -49 -26z"/>
<path d="M1070 2099 l-35 -30 38 26 c33 24 43 35 34 35 -1 0 -18 -14 -37 -31z"/>
<path d="M954 2019 c-19 -22 -19 -22 4 -8 12 8 22 17 22 21 0 12 -6 9 -26 -13z"/>
<path d="M719 1843 c-13 -16 -12 -17 4 -4 9 7 17 15 17 17 0 8 -8 3 -21 -13z"/>
<path d="M679 1813 c-13 -16 -12 -17 4 -4 9 7 17 15 17 17 0 8 -8 3 -21 -13z"/>
<path d="M639 1783 c-13 -16 -12 -17 4 -4 9 7 17 15 17 17 0 8 -8 3 -21 -13z"/>
<path d="M1100 1661 c0 -7 -6 -11 -14 -8 -8 3 -16 -2 -19 -12 -3 -14 0 -17 15
-13 21 5 35 28 24 39 -3 4 -6 1 -6 -6z"/>
<path d="M487 1765 c-4 -8 -2 -17 3 -20 6 -4 10 3 10 14 0 25 -6 27 -13 6z"/>
<path d="M1190 1645 c0 -8 2 -15 4 -15 2 0 6 7 10 15 3 8 1 15 -4 15 -6 0 -10
-7 -10 -15z"/>
<path d="M961 1324 c0 -11 3 -14 6 -6 3 7 2 16 -1 19 -3 4 -6 -2 -5 -13z"/>
<path d="M492 1587 c-7 -8 -7 -18 -2 -27 8 -12 10 -9 10 10 1 24 1 24 15 6 16
-21 19 -18 9 8 -7 19 -18 20 -32 3z"/>
<path d="M457 1435 c-9 -13 -13 -26 -8 -30 5 -3 12 3 14 12 3 13 5 11 6 -6 1
-16 4 -22 11 -15 5 5 6 21 2 36 l-7 26 -18 -23z"/>
<path d="M1113 1253 c9 -2 23 -2 30 0 6 3 -1 5 -18 5 -16 0 -22 -2 -12 -5z"/>
<path d="M1183 1243 c9 -2 23 -2 30 0 6 3 -1 5 -18 5 -16 0 -22 -2 -12 -5z"/>
<path d="M1243 1233 c9 -2 23 -2 30 0 6 3 -1 5 -18 5 -16 0 -22 -2 -12 -5z"/>
<path d="M1313 1223 c9 -2 23 -2 30 0 6 3 -1 5 -18 5 -16 0 -22 -2 -12 -5z"/>
<path d="M851 1334 c0 -11 3 -14 6 -6 3 7 2 16 -1 19 -3 4 -6 -2 -5 -13z"/>
<path d="M773 1303 c9 -2 23 -2 30 0 6 3 -1 5 -18 5 -16 0 -22 -2 -12 -5z"/>
<path d="M1451 1204 c0 -11 3 -14 6 -6 3 7 2 16 -1 19 -3 4 -6 -2 -5 -13z"/>
<path d="M1476 1211 c-4 -5 -2 -12 3 -15 5 -4 12 -2 15 3 4 5 2 12 -3 15 -5 4
-12 2 -15 -3z"/>
<path d="M1523 1193 c9 -2 23 -2 30 0 6 3 -1 5 -18 5 -16 0 -22 -2 -12 -5z"/>
<path d="M1430 1008 c0 -4 4 -8 9 -8 6 0 12 4 15 8 3 5 -1 9 -9 9 -8 0 -15 -4
-15 -9z"/>
<path d="M573 1333 c9 -2 23 -2 30 0 6 3 -1 5 -18 5 -16 0 -22 -2 -12 -5z"/>
<path d="M688 1183 c4 -23 2 -25 -14 -19 -14 5 -16 4 -7 -5 6 -6 16 -8 22 -5
13 8 15 43 2 50 -4 3 -6 -6 -3 -21z"/>
<path d="M1842 2675 c3 -18 12 -20 79 -23 62 -2 78 0 82 13 5 11 -1 15 -26 16
-18 1 -51 2 -74 3 -25 1 -43 -2 -43 -8 0 -6 -5 -4 -11 4 -8 12 -10 11 -7 -5z"/>
<path d="M1690 2664 c-8 -1 -82 -10 -165 -20 -82 -9 -156 -21 -162 -27 -9 -6
-13 -6 -13 2 0 7 -5 9 -12 5 -7 -4 -22 -9 -34 -10 -43 -5 -102 -15 -229 -40
-212 -41 -268 -55 -258 -65 6 -6 21 -5 39 1 45 15 332 70 399 76 32 3 62 7 66
10 4 2 11 -1 15 -7 5 -9 10 -8 18 3 9 12 62 22 203 38 106 13 190 27 187 32
-5 8 -24 9 -54 2z"/>
<path d="M985 2640 c-3 -5 3 -10 15 -10 12 0 18 5 15 10 -3 6 -10 10 -15 10
-5 0 -12 -4 -15 -10z"/>
<path d="M1990 2641 c-25 -7 -25 -7 9 -19 27 -10 31 -9 22 2 -6 7 -8 16 -4 19
3 4 4 7 2 6 -2 -1 -15 -4 -29 -8z"/>
<path d="M2075 2586 c11 -8 25 -16 31 -16 6 0 28 -11 49 -25 20 -14 41 -25 47
-23 10 4 -90 63 -124 73 -23 7 -23 7 -3 -9z"/>
<path d="M2184 2496 c-4 -10 -2 -22 4 -28 8 -8 13 -7 18 6 4 10 2 22 -4 28 -8
8 -13 7 -18 -6z"/>
<path d="M590 2486 c0 -18 27 -23 125 -22 65 1 80 4 83 17 2 14 -9 16 -73 16
-56 0 -75 -3 -75 -13 0 -8 -4 -14 -10 -14 -5 0 -10 7 -10 15 0 8 -9 15 -20 15
-11 0 -20 -6 -20 -14z"/>
<path d="M2240 2486 c0 -8 -5 -16 -11 -18 -6 -2 19 -4 55 -4 45 0 67 3 70 13
3 7 2 13 -2 14 -75 9 -112 7 -112 -5z"/>
<path d="M636 2383 c-6 -14 -5 -15 5 -6 7 7 10 15 7 18 -3 3 -9 -2 -12 -12z"/>
<path d="M320 2201 c0 -23 29 -29 104 -23 39 3 56 9 56 18 0 8 -6 14 -14 14
-7 0 -28 3 -45 6 -27 6 -31 4 -31 -15 0 -12 -6 -21 -15 -21 -8 0 -15 8 -15 18
0 11 -8 18 -20 19 -13 1 -20 -4 -20 -16z"/>
<path d="M2467 2199 c4 -16 8 -17 14 -7 13 19 11 28 -5 28 -9 0 -12 -7 -9 -21z"/>
<path d="M2517 2207 c-9 -24 1 -27 80 -27 58 0 73 3 73 15 0 11 -13 15 -52 15
-29 0 -63 3 -74 6 -14 4 -23 0 -27 -9z m33 -1 c0 -3 -4 -8 -10 -11 -5 -3 -10
-1 -10 4 0 6 5 11 10 11 6 0 10 -2 10 -4z"/>
<path d="M2548 2153 c12 -2 32 -2 45 0 12 2 2 4 -23 4 -25 0 -35 -2 -22 -4z"/>
<path d="M120 1830 c0 -11 4 -20 9 -20 5 0 7 9 4 20 -3 11 -7 20 -9 20 -2 0
-4 -9 -4 -20z"/>
<path d="M170 1831 c0 -7 -8 -20 -17 -27 -13 -9 -14 -13 -5 -14 8 0 22 10 33
23 10 12 18 17 19 12 0 -6 25 -12 55 -13 46 -1 55 1 55 16 0 14 -11 17 -70 17
-54 1 -70 -3 -70 -14z"/>
<path d="M2656 1842 c-9 -15 1 -32 20 -32 8 0 14 10 14 23 0 16 -3 18 -9 8 -7
-11 -9 -11 -13 0 -3 10 -6 10 -12 1z"/>
<path d="M2710 1826 c-5 -13 -15 -26 -22 -29 -8 -4 -7 -6 5 -6 9 -1 17 4 17 9
0 6 24 10 53 11 60 1 107 12 91 21 -16 10 -88 13 -102 4 -7 -4 -12 -2 -12 3 0
20 -20 11 -30 -13z"/>
<path d="M70 1831 c0 -6 4 -13 10 -16 6 -3 7 1 4 9 -7 18 -14 21 -14 7z"/>
<path d="M201 1713 c-11 -43 -27 -112 -36 -153 -8 -41 -17 -85 -20 -97 -4 -17
-1 -23 12 -23 15 0 18 10 19 63 1 34 15 113 31 175 17 61 27 112 23 112 -4 0
-17 -35 -29 -77z"/>
<path d="M245 1630 c-17 -33 -18 -40 -7 -40 4 0 12 16 18 35 13 43 10 45 -11
5z"/>
<path d="M202 1535 c-30 -62 -27 -71 4 -12 14 27 24 51 22 53 -3 2 -14 -17
-26 -41z"/>
<path d="M215 1460 c-10 -11 -14 -20 -9 -20 5 0 15 9 22 20 7 11 11 20 9 20
-2 0 -12 -9 -22 -20z"/>
<path d="M45 1410 c-8 -13 3 -30 20 -30 8 0 13 9 12 20 -1 21 -21 27 -32 10z"/>
<path d="M104 1408 c-12 -19 11 -28 71 -28 61 0 88 11 64 25 -16 11 -129 13
-135 3z"/>
<path d="M0 1401 c0 -6 4 -13 10 -16 6 -3 7 1 4 9 -7 18 -14 21 -14 7z"/>
<path d="M75 1370 c-3 -5 1 -10 9 -10 9 0 16 5 16 10 0 6 -4 10 -9 10 -6 0
-13 -4 -16 -10z"/>
<path d="M1663 1173 c9 -2 23 -2 30 0 6 3 -1 5 -18 5 -16 0 -22 -2 -12 -5z"/>
<path d="M1733 1163 c9 -2 23 -2 30 0 6 3 -1 5 -18 5 -16 0 -22 -2 -12 -5z"/>
<path d="M1815 1150 c17 -4 46 -8 65 -8 l35 0 -30 8 c-16 4 -46 8 -65 8 l-35
0 30 -8z"/>
<path d="M1953 1133 c9 -2 23 -2 30 0 6 3 -1 5 -18 5 -16 0 -22 -2 -12 -5z"/>
<path d="M2013 1123 c9 -2 23 -2 30 0 6 3 -1 5 -18 5 -16 0 -22 -2 -12 -5z"/>
<path d="M2083 1113 c9 -2 25 -2 35 0 9 3 1 5 -18 5 -19 0 -27 -2 -17 -5z"/>
<path d="M2163 1103 c9 -2 23 -2 30 0 6 3 -1 5 -18 5 -16 0 -22 -2 -12 -5z"/>
<path d="M2243 1093 c9 -2 23 -2 30 0 6 3 -1 5 -18 5 -16 0 -22 -2 -12 -5z"/>
<path d="M2303 1083 c9 -2 25 -2 35 0 9 3 1 5 -18 5 -19 0 -27 -2 -17 -5z"/>
<path d="M2383 1073 c9 -2 23 -2 30 0 6 3 -1 5 -18 5 -16 0 -22 -2 -12 -5z"/>
<path d="M2453 1063 c9 -2 25 -2 35 0 9 3 1 5 -18 5 -19 0 -27 -2 -17 -5z"/>
<path d="M2533 1053 c9 -2 23 -2 30 0 6 3 -1 5 -18 5 -16 0 -22 -2 -12 -5z"/>
<path d="M180 1030 c0 -10 -7 -21 -16 -24 -9 -4 -15 -9 -12 -12 3 -2 18 0 33
6 19 7 31 7 40 0 10 -8 15 -8 20 0 4 6 16 10 28 8 14 -2 22 2 22 11 0 8 -11
15 -25 17 -14 2 -40 6 -57 8 -27 4 -33 1 -33 -14z"/>
<path d="M136 1024 c-4 -9 -4 -19 -1 -22 2 -3 7 3 11 12 4 9 4 19 1 22 -2 3
-7 -3 -11 -12z"/>
<path d="M2675 1029 c-4 -6 -5 -11 -4 -12 2 -1 14 -8 26 -14 15 -9 24 -9 29
-2 3 6 20 10 38 9 53 -3 66 -1 66 13 0 9 -16 14 -50 16 -39 2 -50 -1 -50 -14
0 -19 -16 -20 -24 0 -6 17 -22 20 -31 4z"/>
<path d="M2538 1023 c6 -2 18 -2 25 0 6 3 1 5 -13 5 -14 0 -19 -2 -12 -5z"/>
<path d="M1703 1013 c87 -2 227 -2 310 0 84 1 13 3 -158 3 -170 0 -239 -2
-152 -3z"/>
<path d="M2650 986 c-8 -8 -162 -90 -342 -181 -181 -92 -328 -171 -328 -177 0
-12 699 343 700 357 2 16 -14 16 -30 1z"/>
<path d="M230 921 c28 -92 110 -234 126 -218 4 3 -8 23 -25 44 -17 21 -31 47
-31 59 0 12 -6 24 -14 27 -8 3 -25 38 -37 76 -28 85 -45 96 -19 12z"/>
<path d="M241 814 c0 -11 3 -14 6 -6 3 7 2 16 -1 19 -3 4 -6 -2 -5 -13z"/>
<path d="M315 672 c-10 -10 -4 -20 15 -25 14 -4 20 0 20 12 0 16 -23 24 -35
13z"/>
<path d="M366 649 c-16 -31 -13 -37 9 -16 7 8 27 12 49 9 36 -4 51 -22 19 -22
-21 0 -8 -12 129 -118 49 -37 88 -73 88 -79 0 -9 16 -13 45 -13 25 0 45 5 45
10 0 6 -8 10 -17 10 -23 0 -243 168 -243 186 0 8 -5 14 -11 14 -8 0 -7 5 1 15
17 20 15 21 -47 28 -50 6 -53 5 -67 -24z"/>
<path d="M2460 660 c0 -11 7 -20 15 -20 8 0 15 9 15 20 0 11 -7 20 -15 20 -8
0 -15 -9 -15 -20z"/>
<path d="M2516 672 c-2 -4 -1 -14 3 -20 11 -18 143 -12 149 7 4 11 -10 13 -66
9 -39 -2 -66 0 -59 4 8 5 7 8 -5 8 -9 0 -19 -4 -22 -8z"/>
<path d="M2495 630 c-3 -5 -1 -10 4 -10 6 0 11 5 11 10 0 6 -2 10 -4 10 -3 0
-8 -4 -11 -10z"/>
<path d="M1925 610 c-3 -5 -15 -10 -25 -10 -10 0 -20 -3 -22 -7 -2 -7 -348
-178 -681 -339 -38 -18 -53 -30 -45 -35 7 -5 19 -2 28 5 8 7 94 50 190 96 96
45 259 125 361 176 103 52 191 94 195 94 5 0 18 7 28 15 19 15 19 15 -1 15
-12 0 -25 -4 -28 -10z"/>
<path d="M613 384 c-8 -20 13 -42 27 -28 12 12 3 44 -11 44 -5 0 -12 -7 -16
-16z"/>
<path d="M674 386 c-10 -25 2 -31 57 -31 62 0 77 20 22 29 -21 4 -46 9 -56 12
-10 3 -20 -1 -23 -10z"/>
<path d="M2174 385 c-6 -15 2 -35 15 -35 5 0 9 11 9 25 0 27 -15 34 -24 10z"/>
<path d="M2230 375 c0 -15 7 -17 90 -19 34 -1 45 3 45 14 0 12 -15 16 -67 18
-56 2 -68 0 -68 -13z"/>
<path d="M984 195 c-9 -22 1 -29 15 -11 8 10 9 16 1 21 -5 3 -13 -1 -16 -10z"/>
<path d="M1807 204 c-4 -4 -7 -16 -7 -26 0 -20 25 -25 36 -7 8 13 -19 43 -29
33z"/>
<path d="M1866 202 c-3 -3 -6 -13 -6 -23 0 -9 -6 -20 -12 -23 -7 -3 -2 -3 12
1 14 4 47 7 75 7 39 1 50 5 53 18 3 14 -3 16 -27 13 -17 -2 -44 0 -60 5 -16 4
-32 6 -35 2z"/>
<path d="M1030 186 c0 -17 30 -24 90 -22 33 1 45 5 45 16 0 12 -15 15 -67 17
-51 2 -68 -1 -68 -11z"/>
<path d="M1380 120 c0 -11 7 -20 15 -20 8 0 15 9 15 20 0 11 -7 20 -15 20 -8
0 -15 -9 -15 -20z"/>
<path d="M1440 118 c0 -14 10 -17 70 -17 59 0 70 3 70 17 0 14 -11 17 -70 17
-60 0 -70 -2 -70 -17z"/>
</g>
</svg>
